# Blender v2.79 (sub 0) OBJ File: ''
# www.blender.org
o quarters_dorm01_connection
v 0.000000 99.203697 0.660535
v 0.000000 78.727898 0.662496
v 0.009592 78.737984 100.000015
v 0.009592 99.213684 99.998016
v 0.000000 99.203697 0.660535
v 0.009592 78.737984 100.000015
v 4.915700 78.737984 99.999512
v 4.915700 99.213684 99.997612
v 0.009592 99.213684 99.998016
v 0.009592 78.737984 100.000015
v 4.915700 78.737984 99.999512
v 0.009592 99.213684 99.998016
v 4.906110 78.727898 0.661996
v 4.906110 99.203697 0.660065
v 4.915700 99.213684 99.997612
v 4.915700 78.737984 99.999512
v 4.906110 78.727898 0.661996
v 4.915700 99.213684 99.997612
v 4.906110 99.203697 0.660065
v 4.906110 78.727898 0.661996
v 0.000000 78.727898 0.662496
v 0.000000 99.203697 0.660535
v 4.906110 99.203697 0.660065
v 0.000000 78.727898 0.662496
v 4.915700 78.737984 99.999512
v 0.009592 78.737984 100.000015
v 0.000000 78.727898 0.662496
v 4.906110 78.727898 0.661996
v 4.915700 78.737984 99.999512
v 0.000000 78.727898 0.662496
v 0.009592 99.213684 99.998016
v 4.915700 99.213684 99.997612
v 4.906110 99.203697 0.660065
v 0.000000 99.203697 0.660535
v 0.009592 99.213684 99.998016
v 4.906110 99.203697 0.660065
v 0.003826 97.647888 79.482712
v 0.003826 0.387976 79.491898
v 0.005766 0.389970 99.359398
v 0.005766 97.649887 99.350212
v 0.003826 97.647888 79.482712
v 0.005766 0.389970 99.359398
v 4.911870 0.389970 99.359001
v 4.911870 97.649887 99.349716
v 0.005766 97.649887 99.350212
v 0.005766 0.389970 99.359398
v 4.911870 0.389970 99.359001
v 0.005766 97.649887 99.350212
v 4.909940 0.387976 79.491501
v 4.909940 97.647888 79.482216
v 4.911870 97.649887 99.349716
v 4.911870 0.389970 99.359001
v 4.909940 0.387976 79.491501
v 4.911870 97.649887 99.349716
v 4.909940 97.647888 79.482216
v 4.909940 0.387976 79.491501
v 0.003826 0.387976 79.491898
v 0.003826 97.647888 79.482712
v 4.909940 97.647888 79.482216
v 0.003826 0.387976 79.491898
v 4.911870 0.389970 99.359001
v 0.005766 0.389970 99.359398
v 0.003826 0.387976 79.491898
v 4.909940 0.387976 79.491501
v 4.911870 0.389970 99.359001
v 0.003826 0.387976 79.491898
v 0.005766 97.649887 99.350212
v 4.911870 97.649887 99.349716
v 4.909940 97.647888 79.482216
v 0.003826 97.647888 79.482712
v 0.005766 97.649887 99.350212
v 4.909940 97.647888 79.482216
v 99.980797 99.134102 0.000016
v 1.858580 99.134102 0.019486
v 1.877810 99.134087 99.357018
v 100.000000 99.134087 99.337517
v 99.980797 99.134102 0.000016
v 1.877810 99.134087 99.357018
v 1.877810 94.015182 99.357018
v 100.000000 94.015083 99.337517
v 100.000000 99.134087 99.337517
v 1.877810 99.134087 99.357018
v 1.877810 94.015182 99.357018
v 100.000000 99.134087 99.337517
v 1.858580 94.015198 0.019486
v 99.980797 94.015099 0.000015
v 100.000000 94.015083 99.337517
v 1.877810 94.015182 99.357018
v 1.858580 94.015198 0.019486
v 100.000000 94.015083 99.337517
v 99.980797 94.015099 0.000015
v 1.858580 94.015198 0.019486
v 1.858580 99.134102 0.019486
v 99.980797 99.134102 0.000016
v 99.980797 94.015099 0.000015
v 1.858580 99.134102 0.019486
v 1.877810 94.015182 99.357018
v 1.877810 99.134087 99.357018
v 1.858580 99.134102 0.019486
v 1.858580 94.015198 0.019486
v 1.877810 94.015182 99.357018
v 1.858580 99.134102 0.019486
v 100.000000 99.134087 99.337517
v 100.000000 94.015083 99.337517
v 99.980797 94.015099 0.000015
v 99.980797 99.134102 0.000016
v 100.000000 99.134087 99.337517
v 99.980797 94.015099 0.000015
v 98.473999 5.118940 0.000001
v 0.351793 5.119020 0.019471
v 0.371023 5.119004 99.357002
v 98.493202 5.118924 99.337502
v 98.473999 5.118940 0.000001
v 0.371023 5.119004 99.357002
v 0.371023 0.000060 99.357002
v 98.493202 -0.000016 99.337502
v 98.493202 5.118924 99.337502
v 0.371023 5.119004 99.357002
v 0.371023 0.000060 99.357002
v 98.493202 5.118924 99.337502
v 0.351793 0.000076 0.019470
v 98.473999 0.000000 0.000000
v 98.493202 -0.000016 99.337502
v 0.371023 0.000060 99.357002
v 0.351793 0.000076 0.019470
v 98.493202 -0.000016 99.337502
v 98.473999 0.000000 0.000000
v 0.351793 0.000076 0.019470
v 0.351793 5.119020 0.019471
v 98.473999 5.118940 0.000001
v 98.473999 0.000000 0.000000
v 0.351793 5.119020 0.019471
v 0.371023 0.000060 99.357002
v 0.371023 5.119004 99.357002
v 0.351793 5.119020 0.019471
v 0.351793 0.000076 0.019470
v 0.371023 0.000060 99.357002
v 0.351793 5.119020 0.019471
v 98.493202 5.118924 99.337502
v 98.493202 -0.000016 99.337502
v 98.473999 0.000000 0.000000
v 98.473999 5.118940 0.000001
v 98.493202 5.118924 99.337502
v 98.473999 0.000000 0.000000
v 0.003826 99.998001 0.649560
v 0.003826 2.738100 0.658779
v 0.005766 2.740087 20.526300
v 0.005766 100.000000 20.517017
v 0.003826 99.998001 0.649560
v 0.005766 2.740087 20.526300
v 4.911870 2.740087 20.525801
v 4.911870 100.000000 20.516518
v 0.005766 100.000000 20.517017
v 0.005766 2.740087 20.526300
v 4.911870 2.740087 20.525801
v 0.005766 100.000000 20.517017
v 4.909940 2.738100 0.658310
v 4.909940 99.998001 0.649064
v 4.911870 100.000000 20.516518
v 4.911870 2.740087 20.525801
v 4.909940 2.738100 0.658310
v 4.911870 100.000000 20.516518
v 4.909940 99.998001 0.649064
v 4.909940 2.738100 0.658310
v 0.003826 2.738100 0.658779
v 0.003826 99.998001 0.649560
v 4.909940 99.998001 0.649064
v 0.003826 2.738100 0.658779
v 4.911870 2.740087 20.525801
v 0.005766 2.740087 20.526300
v 0.003826 2.738100 0.658779
v 4.909940 2.738100 0.658310
v 4.911870 2.740087 20.525801
v 0.003826 2.738100 0.658779
v 0.005766 100.000000 20.517017
v 4.911870 100.000000 20.516518
v 4.909940 99.998001 0.649064
v 0.003826 99.998001 0.649560
v 0.005766 100.000000 20.517017
v 4.909940 99.998001 0.649064
vt 0.000000 0.000098
vt 0.000000 0.000098
vt 0.000000 0.000098
vt 0.000000 0.000098
vt 0.000000 0.000098
vt 0.000000 0.000098
vt 0.000098 1.000000
vt 0.000098 1.000000
vt 0.000098 1.000000
vt 0.000098 1.000000
vt 0.000098 1.000000
vt 0.000098 1.000000
vt -0.000000 -0.000098
vt -0.000000 -0.000098
vt -0.000000 -0.000098
vt -0.000000 -0.000098
vt -0.000000 -0.000098
vt -0.000000 -0.000098
vt -0.000098 -1.000000
vt -0.000098 -1.000000
vt -0.000098 -1.000000
vt -0.000098 -1.000000
vt -0.000098 -1.000000
vt -0.000098 -1.000000
vt -1.000000 0.000098
vt -1.000000 0.000098
vt -1.000000 0.000098
vt -1.000000 0.000098
vt -1.000000 0.000098
vt -1.000000 0.000098
vt 1.000000 -0.000098
vt 1.000000 -0.000098
vt 1.000000 -0.000098
vt 1.000000 -0.000098
vt 1.000000 -0.000098
vt 1.000000 -0.000098
vt 0.000000 0.000098
vt 0.000000 0.000098
vt 0.000000 0.000098
vt 0.000000 0.000098
vt 0.000000 0.000098
vt 0.000000 0.000098
vt 0.000098 1.000000
vt 0.000098 1.000000
vt 0.000098 1.000000
vt 0.000098 1.000000
vt 0.000098 1.000000
vt 0.000098 1.000000
vt -0.000000 -0.000098
vt -0.000000 -0.000098
vt -0.000000 -0.000098
vt -0.000000 -0.000098
vt -0.000000 -0.000098
vt -0.000000 -0.000098
vt -0.000098 -1.000000
vt -0.000098 -1.000000
vt -0.000098 -1.000000
vt -0.000098 -1.000000
vt -0.000098 -1.000000
vt -0.000098 -1.000000
vt -1.000000 0.000098
vt -1.000000 0.000098
vt -1.000000 0.000098
vt -1.000000 0.000098
vt -1.000000 0.000098
vt -1.000000 0.000098
vt 1.000000 -0.000098
vt 1.000000 -0.000098
vt 1.000000 -0.000098
vt 1.000000 -0.000098
vt 1.000000 -0.000098
vt 1.000000 -0.000098
vt 1.000000 -0.000000
vt 1.000000 -0.000000
vt 1.000000 -0.000000
vt 1.000000 -0.000000
vt 1.000000 -0.000000
vt 1.000000 -0.000000
vt 0.000000 1.000000
vt 0.000000 1.000000
vt 0.000000 1.000000
vt 0.000000 1.000000
vt 0.000000 1.000000
vt 0.000000 1.000000
vt -1.000000 0.000000
vt -1.000000 0.000000
vt -1.000000 0.000000
vt -1.000000 0.000000
vt -1.000000 0.000000
vt -1.000000 0.000000
vt 0.000000 -1.000000
vt 0.000000 -1.000000
vt 0.000000 -1.000000
vt 0.000000 -1.000000
vt 0.000000 -1.000000
vt 0.000000 -1.000000
vt 0.000001 0.000196
vt 0.000001 0.000196
vt 0.000001 0.000196
vt 0.000001 0.000196
vt 0.000001 0.000196
vt 0.000001 0.000196
vt 0.000000 -0.000196
vt 0.000000 -0.000196
vt 0.000000 -0.000196
vt 0.000000 -0.000196
vt 0.000000 -0.000196
vt 0.000000 -0.000196
vt 1.000000 -0.000000
vt 1.000000 -0.000000
vt 1.000000 -0.000000
vt 1.000000 -0.000000
vt 1.000000 -0.000000
vt 1.000000 -0.000000
vt 0.000000 1.000000
vt 0.000000 1.000000
vt 0.000000 1.000000
vt 0.000000 1.000000
vt 0.000000 1.000000
vt 0.000000 1.000000
vt -1.000000 0.000000
vt -1.000000 0.000000
vt -1.000000 0.000000
vt -1.000000 0.000000
vt -1.000000 0.000000
vt -1.000000 0.000000
vt 0.000000 -1.000000
vt 0.000000 -1.000000
vt 0.000000 -1.000000
vt 0.000000 -1.000000
vt 0.000000 -1.000000
vt 0.000000 -1.000000
vt 0.000001 0.000196
vt 0.000001 0.000196
vt 0.000001 0.000196
vt 0.000001 0.000196
vt 0.000001 0.000196
vt 0.000001 0.000196
vt -0.000001 -0.000196
vt -0.000001 -0.000196
vt -0.000001 -0.000196
vt -0.000001 -0.000196
vt -0.000001 -0.000196
vt -0.000001 -0.000196
vt 0.000000 0.000098
vt 0.000000 0.000098
vt 0.000000 0.000098
vt 0.000000 0.000098
vt 0.000000 0.000098
vt 0.000000 0.000098
vt 0.000098 1.000000
vt 0.000098 1.000000
vt 0.000098 1.000000
vt 0.000098 1.000000
vt 0.000098 1.000000
vt 0.000098 1.000000
vt -0.000000 -0.000098
vt -0.000000 -0.000098
vt -0.000000 -0.000098
vt -0.000000 -0.000098
vt -0.000000 -0.000098
vt -0.000000 -0.000098
vt -0.000098 -1.000000
vt -0.000098 -1.000000
vt -0.000098 -1.000000
vt -0.000098 -1.000000
vt -0.000098 -1.000000
vt -0.000098 -1.000000
vt -1.000000 0.000098
vt -1.000000 0.000098
vt -1.000000 0.000098
vt -1.000000 0.000098
vt -1.000000 0.000098
vt -1.000000 0.000098
vt 1.000000 -0.000098
vt 1.000000 -0.000098
vt 1.000000 -0.000098
vt 1.000000 -0.000098
vt 1.000000 -0.000098
vt 1.000000 -0.000098
vn -1.0000 0.0000 0.0001
vn 0.0001 0.0001 1.0000
vn 1.0000 -0.0000 -0.0001
vn -0.0001 -0.0001 -1.0000
vn 0.0000 -1.0000 0.0001
vn -0.0000 1.0000 -0.0001
vn 0.0000 1.0000 0.0000
vn 0.0002 0.0000 1.0000
vn -0.0000 -1.0000 -0.0000
vn -0.0002 0.0000 -1.0000
vn -1.0000 0.0000 0.0002
vn 1.0000 0.0000 -0.0002
s 1
f 1/1/1 2/2/1 3/3/1
f 4/4/1 5/5/1 6/6/1
f 7/7/2 8/8/2 9/9/2
f 10/10/2 11/11/2 12/12/2
f 13/13/3 14/14/3 15/15/3
f 16/16/3 17/17/3 18/18/3
f 19/19/4 20/20/4 21/21/4
f 22/22/4 23/23/4 24/24/4
f 25/25/5 26/26/5 27/27/5
f 28/28/5 29/29/5 30/30/5
f 31/31/6 32/32/6 33/33/6
f 34/34/6 35/35/6 36/36/6
f 37/37/1 38/38/1 39/39/1
f 40/40/1 41/41/1 42/42/1
f 43/43/2 44/44/2 45/45/2
f 46/46/2 47/47/2 48/48/2
f 49/49/3 50/50/3 51/51/3
f 52/52/3 53/53/3 54/54/3
f 55/55/4 56/56/4 57/57/4
f 58/58/4 59/59/4 60/60/4
f 61/61/5 62/62/5 63/63/5
f 64/64/5 65/65/5 66/66/5
f 67/67/6 68/68/6 69/69/6
f 70/70/6 71/71/6 72/72/6
f 73/73/7 74/74/7 75/75/7
f 76/76/7 77/77/7 78/78/7
f 79/79/8 80/80/8 81/81/8
f 82/82/8 83/83/8 84/84/8
f 85/85/9 86/86/9 87/87/9
f 88/88/9 89/89/9 90/90/9
f 91/91/10 92/92/10 93/93/10
f 94/94/10 95/95/10 96/96/10
f 97/97/11 98/98/11 99/99/11
f 100/100/11 101/101/11 102/102/11
f 103/103/12 104/104/12 105/105/12
f 106/106/12 107/107/12 108/108/12
f 109/109/7 110/110/7 111/111/7
f 112/112/7 113/113/7 114/114/7
f 115/115/8 116/116/8 117/117/8
f 118/118/8 119/119/8 120/120/8
f 121/121/9 122/122/9 123/123/9
f 124/124/9 125/125/9 126/126/9
f 127/127/10 128/128/10 129/129/10
f 130/130/10 131/131/10 132/132/10
f 133/133/11 134/134/11 135/135/11
f 136/136/11 137/137/11 138/138/11
f 139/139/12 140/140/12 141/141/12
f 142/142/12 143/143/12 144/144/12
f 145/145/1 146/146/1 147/147/1
f 148/148/1 149/149/1 150/150/1
f 151/151/2 152/152/2 153/153/2
f 154/154/2 155/155/2 156/156/2
f 157/157/3 158/158/3 159/159/3
f 160/160/3 161/161/3 162/162/3
f 163/163/4 164/164/4 165/165/4
f 166/166/4 167/167/4 168/168/4
f 169/169/5 170/170/5 171/171/5
f 172/172/5 173/173/5 174/174/5
f 175/175/6 176/176/6 177/177/6
f 178/178/6 179/179/6 180/180/6
