# Blender v2.79 (sub 0) OBJ File: 'unit_cone.blend'
# www.blender.org
o unit_cone
v 0.097545 -0.030303 -0.490393
v 0.000000 0.969697 0.000000
v 0.191341 -0.030303 -0.461940
v -0.097545 -0.030303 -0.490393
v 0.000000 0.969697 0.000000
v 0.000000 -0.030303 -0.500000
v 0.097545 -0.030303 -0.490393
v 0.000000 -0.030303 -0.500000
v 0.000000 0.969697 0.000000
v -0.191342 -0.030303 -0.461940
v 0.000000 0.969697 0.000000
v -0.097545 -0.030303 -0.490393
v 0.191341 -0.030303 -0.461940
v 0.000000 0.969697 0.000000
v 0.277785 -0.030303 -0.415735
v 0.277785 -0.030303 -0.415735
v 0.000000 0.969697 0.000000
v 0.353553 -0.030303 -0.353554
v 0.353553 -0.030303 -0.353554
v 0.000000 0.969697 0.000000
v 0.415735 -0.030303 -0.277786
v 0.415735 -0.030303 -0.277786
v 0.000000 0.969697 0.000000
v 0.461940 -0.030303 -0.191342
v 0.461940 -0.030303 -0.191342
v 0.000000 0.969697 0.000000
v 0.490393 -0.030303 -0.097546
v 0.490393 -0.030303 -0.097546
v 0.000000 0.969697 0.000000
v 0.500000 -0.030303 -0.000000
v 0.500000 -0.030303 -0.000000
v 0.000000 0.969697 0.000000
v 0.490393 -0.030303 0.097545
v 0.490393 -0.030303 0.097545
v 0.000000 0.969697 0.000000
v 0.461940 -0.030303 0.191341
v 0.461940 -0.030303 0.191341
v 0.000000 0.969697 0.000000
v 0.415735 -0.030303 0.277785
v 0.415735 -0.030303 0.277785
v 0.000000 0.969697 0.000000
v 0.353554 -0.030303 0.353553
v 0.353554 -0.030303 0.353553
v 0.000000 0.969697 0.000000
v 0.277785 -0.030303 0.415735
v 0.277785 -0.030303 0.415735
v 0.000000 0.969697 0.000000
v 0.191342 -0.030303 0.461940
v 0.191342 -0.030303 0.461940
v 0.000000 0.969697 0.000000
v 0.097545 -0.030303 0.490393
v 0.097545 -0.030303 0.490393
v 0.000000 0.969697 0.000000
v 0.000000 -0.030303 0.500000
v 0.000000 -0.030303 0.500000
v 0.000000 0.969697 0.000000
v -0.097545 -0.030303 0.490393
v -0.097545 -0.030303 0.490393
v 0.000000 0.969697 0.000000
v -0.191342 -0.030303 0.461940
v -0.191342 -0.030303 0.461940
v 0.000000 0.969697 0.000000
v -0.277785 -0.030303 0.415735
v -0.277785 -0.030303 0.415735
v 0.000000 0.969697 0.000000
v -0.353553 -0.030303 0.353554
v -0.353553 -0.030303 0.353554
v 0.000000 0.969697 0.000000
v -0.415735 -0.030303 0.277785
v -0.415735 -0.030303 0.277785
v 0.000000 0.969697 0.000000
v -0.461940 -0.030303 0.191342
v -0.461940 -0.030303 0.191342
v 0.000000 0.969697 0.000000
v -0.490393 -0.030303 0.097545
v -0.490393 -0.030303 0.097545
v 0.000000 0.969697 0.000000
v -0.500000 -0.030303 -0.000000
v -0.500000 -0.030303 -0.000000
v 0.000000 0.969697 0.000000
v -0.490393 -0.030303 -0.097545
v -0.490393 -0.030303 -0.097545
v 0.000000 0.969697 0.000000
v -0.461940 -0.030303 -0.191342
v -0.461940 -0.030303 -0.191342
v 0.000000 0.969697 0.000000
v -0.415735 -0.030303 -0.277785
v -0.415735 -0.030303 -0.277785
v 0.000000 0.969697 0.000000
v -0.353553 -0.030303 -0.353553
v -0.353553 -0.030303 -0.353553
v 0.000000 0.969697 0.000000
v -0.277785 -0.030303 -0.415735
v -0.277785 -0.030303 -0.415735
v 0.000000 0.969697 0.000000
v -0.191342 -0.030303 -0.461940
v 0.097545 -0.030303 -0.490393
v -0.097545 -0.030303 -0.490393
v 0.000000 -0.030303 -0.500000
v 0.097545 -0.030303 -0.490393
v 0.191341 -0.030303 -0.461940
v -0.097545 -0.030303 -0.490393
v 0.191341 -0.030303 -0.461940
v -0.191342 -0.030303 -0.461940
v -0.097545 -0.030303 -0.490393
v 0.191341 -0.030303 -0.461940
v 0.277785 -0.030303 -0.415735
v -0.191342 -0.030303 -0.461940
v 0.277785 -0.030303 -0.415735
v -0.277785 -0.030303 -0.415735
v -0.191342 -0.030303 -0.461940
v 0.277785 -0.030303 -0.415735
v 0.353553 -0.030303 -0.353554
v -0.277785 -0.030303 -0.415735
v 0.353553 -0.030303 -0.353554
v -0.353553 -0.030303 -0.353553
v -0.277785 -0.030303 -0.415735
v 0.353553 -0.030303 -0.353554
v 0.415735 -0.030303 -0.277786
v -0.353553 -0.030303 -0.353553
v 0.415735 -0.030303 -0.277786
v -0.415735 -0.030303 -0.277785
v -0.353553 -0.030303 -0.353553
v 0.415735 -0.030303 -0.277786
v 0.461940 -0.030303 -0.191342
v -0.415735 -0.030303 -0.277785
v 0.461940 -0.030303 -0.191342
v -0.461940 -0.030303 -0.191342
v -0.415735 -0.030303 -0.277785
v 0.461940 -0.030303 -0.191342
v 0.490393 -0.030303 -0.097546
v -0.461940 -0.030303 -0.191342
v 0.490393 -0.030303 -0.097546
v -0.490393 -0.030303 -0.097545
v -0.461940 -0.030303 -0.191342
v 0.490393 -0.030303 -0.097546
v 0.500000 -0.030303 -0.000000
v -0.490393 -0.030303 -0.097545
v 0.500000 -0.030303 -0.000000
v -0.500000 -0.030303 -0.000000
v -0.490393 -0.030303 -0.097545
v 0.500000 -0.030303 -0.000000
v 0.490393 -0.030303 0.097545
v -0.500000 -0.030303 -0.000000
v 0.490393 -0.030303 0.097545
v -0.490393 -0.030303 0.097545
v -0.500000 -0.030303 -0.000000
v 0.490393 -0.030303 0.097545
v 0.461940 -0.030303 0.191341
v -0.490393 -0.030303 0.097545
v 0.461940 -0.030303 0.191341
v -0.461940 -0.030303 0.191342
v -0.490393 -0.030303 0.097545
v 0.461940 -0.030303 0.191341
v 0.415735 -0.030303 0.277785
v -0.461940 -0.030303 0.191342
v 0.415735 -0.030303 0.277785
v -0.415735 -0.030303 0.277785
v -0.461940 -0.030303 0.191342
v 0.415735 -0.030303 0.277785
v 0.353554 -0.030303 0.353553
v -0.415735 -0.030303 0.277785
v 0.353554 -0.030303 0.353553
v -0.353553 -0.030303 0.353554
v -0.415735 -0.030303 0.277785
v 0.353554 -0.030303 0.353553
v 0.277785 -0.030303 0.415735
v -0.353553 -0.030303 0.353554
v 0.277785 -0.030303 0.415735
v -0.277785 -0.030303 0.415735
v -0.353553 -0.030303 0.353554
v 0.277785 -0.030303 0.415735
v 0.191342 -0.030303 0.461940
v -0.277785 -0.030303 0.415735
v 0.191342 -0.030303 0.461940
v -0.191342 -0.030303 0.461940
v -0.277785 -0.030303 0.415735
v 0.191342 -0.030303 0.461940
v 0.097545 -0.030303 0.490393
v -0.191342 -0.030303 0.461940
v 0.097545 -0.030303 0.490393
v -0.097545 -0.030303 0.490393
v -0.191342 -0.030303 0.461940
v 0.097545 -0.030303 0.490393
v 0.000000 -0.030303 0.500000
v -0.097545 -0.030303 0.490393
vt 0.445488 -0.856737
vt 0.445488 -0.856737
vt 0.445488 -0.856737
vt 0.445488 -0.890977
vt 0.445488 -0.890977
vt 0.445488 -0.890977
vt 0.445488 -0.890977
vt 0.445488 -0.890977
vt 0.445488 -0.890977
vt 0.445488 -0.856737
vt 0.445488 -0.856737
vt 0.445488 -0.856737
vt 0.445488 -0.789574
vt 0.445488 -0.789574
vt 0.445488 -0.789574
vt 0.445488 -0.692068
vt 0.445488 -0.692068
vt 0.445488 -0.692068
vt 0.445488 -0.567966
vt 0.445488 -0.567966
vt 0.445488 -0.567966
vt 0.445488 -0.422036
vt 0.445488 -0.422036
vt 0.445488 -0.422036
vt 0.445488 -0.259889
vt 0.445488 -0.259889
vt 0.445488 -0.259889
vt 0.445488 -0.087754
vt 0.445488 -0.087754
vt 0.445488 -0.087754
vt 0.445488 0.087752
vt 0.445488 0.087752
vt 0.445488 0.087752
vt 0.445488 0.259887
vt 0.445488 0.259887
vt 0.445488 0.259887
vt 0.445488 0.422035
vt 0.445488 0.422035
vt 0.445488 0.422035
vt 0.445488 0.567964
vt 0.445488 0.567964
vt 0.445488 0.567964
vt 0.445488 0.692066
vt 0.445488 0.692066
vt 0.445488 0.692066
vt 0.445488 0.789573
vt 0.445488 0.789573
vt 0.445488 0.789573
vt 0.445488 0.856737
vt 0.445488 0.856737
vt 0.445488 0.856737
vt 0.445488 0.890977
vt 0.445488 0.890977
vt 0.445488 0.890977
vt 0.445488 0.890977
vt 0.445488 0.890977
vt 0.445488 0.890977
vt 0.445488 0.856737
vt 0.445488 0.856737
vt 0.445488 0.856737
vt 0.445488 0.789573
vt 0.445488 0.789573
vt 0.445488 0.789573
vt 0.445488 0.692067
vt 0.445488 0.692067
vt 0.445488 0.692067
vt 0.445488 0.567964
vt 0.445488 0.567964
vt 0.445488 0.567964
vt 0.445488 0.422036
vt 0.445488 0.422036
vt 0.445488 0.422036
vt 0.445488 0.259888
vt 0.445488 0.259888
vt 0.445488 0.259888
vt 0.445488 0.087753
vt 0.445488 0.087753
vt 0.445488 0.087753
vt 0.445488 -0.087754
vt 0.445488 -0.087754
vt 0.445488 -0.087754
vt 0.445488 -0.259888
vt 0.445488 -0.259888
vt 0.445488 -0.259888
vt 0.445488 -0.422036
vt 0.445488 -0.422036
vt 0.445488 -0.422036
vt 0.445488 -0.567964
vt 0.445488 -0.567964
vt 0.445488 -0.567964
vt 0.445488 -0.692067
vt 0.445488 -0.692067
vt 0.445488 -0.692067
vt 0.445488 -0.789573
vt 0.445488 -0.789573
vt 0.445488 -0.789573
vt -1.000000 -0.000000
vt -1.000000 -0.000000
vt -1.000000 -0.000000
vt -1.000000 -0.000000
vt -1.000000 -0.000000
vt -1.000000 -0.000000
vt -1.000000 -0.000000
vt -1.000000 -0.000000
vt -1.000000 -0.000000
vt -1.000000 -0.000000
vt -1.000000 -0.000000
vt -1.000000 -0.000000
vt -1.000000 -0.000000
vt -1.000000 -0.000000
vt -1.000000 -0.000000
vt -1.000000 -0.000000
vt -1.000000 -0.000000
vt -1.000000 -0.000000
vt -1.000000 -0.000000
vt -1.000000 -0.000000
vt -1.000000 -0.000000
vt -1.000000 -0.000000
vt -1.000000 -0.000000
vt -1.000000 -0.000000
vt -1.000000 -0.000000
vt -1.000000 -0.000000
vt -1.000000 -0.000000
vt -1.000000 -0.000000
vt -1.000000 -0.000000
vt -1.000000 -0.000000
vt -1.000000 -0.000000
vt -1.000000 -0.000000
vt -1.000000 -0.000000
vt -1.000000 -0.000000
vt -1.000000 -0.000000
vt -1.000000 -0.000000
vt -1.000000 -0.000000
vt -1.000000 -0.000000
vt -1.000000 -0.000000
vt -1.000000 -0.000000
vt -1.000000 -0.000000
vt -1.000000 -0.000000
vt -1.000000 -0.000000
vt -1.000000 -0.000000
vt -1.000000 -0.000000
vt -1.000000 -0.000000
vt -1.000000 -0.000000
vt -1.000000 -0.000000
vt -1.000000 -0.000000
vt -1.000000 -0.000000
vt -1.000000 -0.000000
vt -1.000000 -0.000000
vt -1.000000 -0.000000
vt -1.000000 -0.000000
vt -1.000000 -0.000000
vt -1.000000 -0.000000
vt -1.000000 -0.000000
vt -1.000000 -0.000000
vt -1.000000 -0.000000
vt -1.000000 -0.000000
vt -1.000000 -0.000000
vt -1.000000 -0.000000
vt -1.000000 -0.000000
vt -1.000000 -0.000000
vt -1.000000 -0.000000
vt -1.000000 -0.000000
vt -1.000000 -0.000000
vt -1.000000 -0.000000
vt -1.000000 -0.000000
vt -1.000000 -0.000000
vt -1.000000 -0.000000
vt -1.000000 -0.000000
vt -1.000000 -0.000000
vt -1.000000 -0.000000
vt -1.000000 -0.000000
vt -1.000000 -0.000000
vt -1.000000 -0.000000
vt -1.000000 -0.000000
vt -1.000000 -0.000000
vt -1.000000 -0.000000
vt -1.000000 -0.000000
vt -1.000000 -0.000000
vt -1.000000 -0.000000
vt -1.000000 -0.000000
vt -1.000000 -0.000000
vt -1.000000 -0.000000
vt -1.000000 -0.000000
vt -1.000000 -0.000000
vt -1.000000 -0.000000
vt -1.000000 -0.000000
vn 0.2599 0.4455 -0.8567
vn -0.0878 0.4455 -0.8910
vn 0.0878 0.4455 -0.8910
vn -0.2599 0.4455 -0.8567
vn 0.4220 0.4455 -0.7896
vn 0.5680 0.4455 -0.6921
vn 0.6921 0.4455 -0.5680
vn 0.7896 0.4455 -0.4220
vn 0.8567 0.4455 -0.2599
vn 0.8910 0.4455 -0.0877
vn 0.8910 0.4455 0.0878
vn 0.8567 0.4455 0.2599
vn 0.7896 0.4455 0.4220
vn 0.6921 0.4455 0.5680
vn 0.5680 0.4455 0.6921
vn 0.4220 0.4455 0.7896
vn 0.2599 0.4455 0.8567
vn 0.0878 0.4455 0.8910
vn -0.0878 0.4455 0.8910
vn -0.2599 0.4455 0.8567
vn -0.4220 0.4455 0.7896
vn -0.5680 0.4455 0.6921
vn -0.6921 0.4455 0.5680
vn -0.7896 0.4455 0.4220
vn -0.8567 0.4455 0.2599
vn -0.8910 0.4455 0.0878
vn -0.8910 0.4455 -0.0878
vn -0.8567 0.4455 -0.2599
vn -0.7896 0.4455 -0.4220
vn -0.6921 0.4455 -0.5680
vn -0.5680 0.4455 -0.6921
vn -0.4220 0.4455 -0.7896
vn 0.0000 -1.0000 0.0000
s 1
f 1/1/1 2/2/1 3/3/1
f 4/4/2 5/5/2 6/6/2
f 7/7/3 8/8/3 9/9/3
f 10/10/4 11/11/4 12/12/4
f 13/13/5 14/14/5 15/15/5
f 16/16/6 17/17/6 18/18/6
f 19/19/7 20/20/7 21/21/7
f 22/22/8 23/23/8 24/24/8
f 25/25/9 26/26/9 27/27/9
f 28/28/10 29/29/10 30/30/10
f 31/31/11 32/32/11 33/33/11
f 34/34/12 35/35/12 36/36/12
f 37/37/13 38/38/13 39/39/13
f 40/40/14 41/41/14 42/42/14
f 43/43/15 44/44/15 45/45/15
f 46/46/16 47/47/16 48/48/16
f 49/49/17 50/50/17 51/51/17
f 52/52/18 53/53/18 54/54/18
f 55/55/19 56/56/19 57/57/19
f 58/58/20 59/59/20 60/60/20
f 61/61/21 62/62/21 63/63/21
f 64/64/22 65/65/22 66/66/22
f 67/67/23 68/68/23 69/69/23
f 70/70/24 71/71/24 72/72/24
f 73/73/25 74/74/25 75/75/25
f 76/76/26 77/77/26 78/78/26
f 79/79/27 80/80/27 81/81/27
f 82/82/28 83/83/28 84/84/28
f 85/85/29 86/86/29 87/87/29
f 88/88/30 89/89/30 90/90/30
f 91/91/31 92/92/31 93/93/31
f 94/94/32 95/95/32 96/96/32
f 97/97/33 98/98/33 99/99/33
f 100/100/33 101/101/33 102/102/33
f 103/103/33 104/104/33 105/105/33
f 106/106/33 107/107/33 108/108/33
f 109/109/33 110/110/33 111/111/33
f 112/112/33 113/113/33 114/114/33
f 115/115/33 116/116/33 117/117/33
f 118/118/33 119/119/33 120/120/33
f 121/121/33 122/122/33 123/123/33
f 124/124/33 125/125/33 126/126/33
f 127/127/33 128/128/33 129/129/33
f 130/130/33 131/131/33 132/132/33
f 133/133/33 134/134/33 135/135/33
f 136/136/33 137/137/33 138/138/33
f 139/139/33 140/140/33 141/141/33
f 142/142/33 143/143/33 144/144/33
f 145/145/33 146/146/33 147/147/33
f 148/148/33 149/149/33 150/150/33
f 151/151/33 152/152/33 153/153/33
f 154/154/33 155/155/33 156/156/33
f 157/157/33 158/158/33 159/159/33
f 160/160/33 161/161/33 162/162/33
f 163/163/33 164/164/33 165/165/33
f 166/166/33 167/167/33 168/168/33
f 169/169/33 170/170/33 171/171/33
f 172/172/33 173/173/33 174/174/33
f 175/175/33 176/176/33 177/177/33
f 178/178/33 179/179/33 180/180/33
f 181/181/33 182/182/33 183/183/33
f 184/184/33 185/185/33 186/186/33
