# Blender v2.79 (sub 0) OBJ File: ''
# www.blender.org
o corridor_nse
v 100.000000 72.865288 79.304916
v 100.000000 24.999987 79.304909
v 84.369400 24.999987 79.304909
v 84.369400 72.865288 79.304916
v 100.000000 72.865288 79.304916
v 84.369400 24.999987 79.304909
v 84.369400 24.999987 84.304207
v 84.369400 72.865288 84.304214
v 84.369400 72.865288 79.304916
v 84.369400 24.999987 79.304909
v 84.369400 24.999987 84.304207
v 84.369400 72.865288 79.304916
v 100.000000 24.999987 84.304207
v 100.000000 72.865288 84.304214
v 84.369400 72.865288 84.304214
v 84.369400 24.999987 84.304207
v 100.000000 24.999987 84.304207
v 84.369400 72.865288 84.304214
v 100.000000 72.865288 84.304214
v 100.000000 24.999987 84.304207
v 100.000000 24.999987 79.304909
v 100.000000 72.865288 79.304916
v 100.000000 72.865288 84.304214
v 100.000000 24.999987 79.304909
v 84.369400 24.999987 84.304207
v 84.369400 24.999987 79.304909
v 100.000000 24.999987 79.304909
v 100.000000 24.999987 84.304207
v 84.369400 24.999987 84.304207
v 100.000000 24.999987 79.304909
v 84.369400 72.865288 79.304916
v 84.369400 72.865288 84.304214
v 100.000000 72.865288 84.304214
v 100.000000 72.865288 79.304916
v 84.369400 72.865288 79.304916
v 100.000000 72.865288 84.304214
v 99.851601 72.865303 15.754711
v 99.851601 24.999998 15.754704
v 84.221001 24.999998 15.754704
v 84.221001 72.865303 15.754711
v 99.851601 72.865303 15.754711
v 84.221001 24.999998 15.754704
v 84.221001 24.999996 20.754004
v 84.221001 72.865303 20.754011
v 84.221001 72.865303 15.754711
v 84.221001 24.999998 15.754704
v 84.221001 24.999996 20.754004
v 84.221001 72.865303 15.754711
v 99.851601 24.999996 20.754004
v 99.851601 72.865303 20.754011
v 84.221001 72.865303 20.754011
v 84.221001 24.999996 20.754004
v 99.851601 24.999996 20.754004
v 84.221001 72.865303 20.754011
v 99.851601 72.865303 20.754011
v 99.851601 24.999996 20.754004
v 99.851601 24.999998 15.754704
v 99.851601 72.865303 15.754711
v 99.851601 72.865303 20.754011
v 99.851601 24.999998 15.754704
v 84.221001 24.999996 20.754004
v 84.221001 24.999998 15.754704
v 99.851601 24.999998 15.754704
v 99.851601 24.999996 20.754004
v 84.221001 24.999996 20.754004
v 99.851601 24.999998 15.754704
v 84.221001 72.865303 15.754711
v 84.221001 72.865303 20.754011
v 99.851601 72.865303 20.754011
v 99.851601 72.865303 15.754711
v 84.221001 72.865303 15.754711
v 99.851601 72.865303 20.754011
v 84.360100 72.865303 0.006859
v 84.360100 25.000000 0.006851
v 84.360100 24.999998 15.004804
v 84.360100 72.865303 15.004811
v 84.360100 72.865303 0.006859
v 84.360100 24.999998 15.004804
v 89.570297 24.999998 15.004804
v 89.570297 72.865303 15.004811
v 84.360100 72.865303 15.004811
v 84.360100 24.999998 15.004804
v 89.570297 24.999998 15.004804
v 84.360100 72.865303 15.004811
v 89.570297 25.000000 0.006851
v 89.570297 72.865303 0.006859
v 89.570297 72.865303 15.004811
v 89.570297 24.999998 15.004804
v 89.570297 25.000000 0.006851
v 89.570297 72.865303 15.004811
v 89.570297 72.865303 0.006859
v 89.570297 25.000000 0.006851
v 84.360100 25.000000 0.006851
v 84.360100 72.865303 0.006859
v 89.570297 72.865303 0.006859
v 84.360100 25.000000 0.006851
v 89.570297 24.999998 15.004804
v 84.360100 24.999998 15.004804
v 84.360100 25.000000 0.006851
v 89.570297 25.000000 0.006851
v 89.570297 24.999998 15.004804
v 84.360100 25.000000 0.006851
v 84.360100 72.865303 15.004811
v 89.570297 72.865303 15.004811
v 89.570297 72.865303 0.006859
v 84.360100 72.865303 0.006859
v 84.360100 72.865303 15.004811
v 89.570297 72.865303 0.006859
v 84.107697 73.104599 15.005511
v 84.114899 73.104584 84.996017
v 99.745499 73.104584 84.994514
v 99.738297 73.104599 15.004011
v 84.107697 73.104599 15.005511
v 99.745499 73.104584 84.994514
v 99.745499 68.318085 84.994507
v 99.738297 68.318100 15.004011
v 99.738297 73.104599 15.004011
v 99.745499 73.104584 84.994514
v 99.745499 68.318085 84.994507
v 99.738297 73.104599 15.004011
v 84.114899 68.318085 84.996010
v 84.107697 68.318100 15.005511
v 99.738297 68.318100 15.004011
v 99.745499 68.318085 84.994507
v 84.114899 68.318085 84.996010
v 99.738297 68.318100 15.004011
v 84.107697 68.318100 15.005511
v 84.114899 68.318085 84.996010
v 84.114899 73.104584 84.996017
v 84.107697 73.104599 15.005511
v 84.107697 68.318100 15.005511
v 84.114899 73.104584 84.996017
v 99.745499 68.318085 84.994507
v 99.745499 73.104584 84.994514
v 84.114899 73.104584 84.996017
v 84.114899 68.318085 84.996010
v 99.745499 68.318085 84.994507
v 84.114899 73.104584 84.996017
v 99.738297 73.104599 15.004011
v 99.738297 68.318100 15.004011
v 84.107697 68.318100 15.005511
v 84.107697 73.104599 15.005511
v 99.738297 73.104599 15.004011
v 84.107697 68.318100 15.005511
v 84.107697 30.025898 15.005505
v 84.114899 30.025887 84.996010
v 99.745499 30.025887 84.994507
v 99.738297 30.025898 15.004004
v 84.107697 30.025898 15.005505
v 99.745499 30.025887 84.994507
v 99.745499 25.239286 84.994507
v 99.738297 25.239298 15.004004
v 99.738297 30.025898 15.004004
v 99.745499 30.025887 84.994507
v 99.745499 25.239286 84.994507
v 99.738297 30.025898 15.004004
v 84.114899 25.239286 84.996010
v 84.107697 25.239298 15.005504
v 99.738297 25.239298 15.004004
v 99.745499 25.239286 84.994507
v 84.114899 25.239286 84.996010
v 99.738297 25.239298 15.004004
v 84.107697 25.239298 15.005504
v 84.114899 25.239286 84.996010
v 84.114899 30.025887 84.996010
v 84.107697 30.025898 15.005505
v 84.107697 25.239298 15.005504
v 84.114899 30.025887 84.996010
v 99.745499 25.239286 84.994507
v 99.745499 30.025887 84.994507
v 84.114899 30.025887 84.996010
v 84.114899 25.239286 84.996010
v 99.745499 25.239286 84.994507
v 84.114899 30.025887 84.996010
v 99.738297 30.025898 15.004004
v 99.738297 25.239298 15.004004
v 84.107697 25.239298 15.005504
v 84.107697 30.025898 15.005505
v 99.738297 30.025898 15.004004
v 84.107697 25.239298 15.005504
v 22.064800 75.000000 0.006860
v 15.000000 68.509697 0.006859
v 15.000000 68.509682 99.993111
v 22.064800 74.999985 99.993118
v 22.064800 75.000000 0.006860
v 15.000000 68.509682 99.993111
v 22.064800 62.019283 99.993111
v 29.129601 68.509583 99.993111
v 22.064800 74.999985 99.993118
v 15.000000 68.509682 99.993111
v 22.064800 62.019283 99.993111
v 22.064800 74.999985 99.993118
v 22.064800 62.019299 0.006857
v 29.129601 68.509598 0.006859
v 29.129601 68.509583 99.993111
v 22.064800 62.019283 99.993111
v 22.064800 62.019299 0.006857
v 29.129601 68.509583 99.993111
v 29.129601 68.509598 0.006859
v 22.064800 62.019299 0.006857
v 15.000000 68.509697 0.006859
v 22.064800 75.000000 0.006860
v 29.129601 68.509598 0.006859
v 15.000000 68.509697 0.006859
v 22.064800 62.019283 99.993111
v 15.000000 68.509682 99.993111
v 15.000000 68.509697 0.006859
v 22.064800 62.019299 0.006857
v 22.064800 62.019283 99.993111
v 15.000000 68.509697 0.006859
v 22.064800 74.999985 99.993118
v 29.129601 68.509583 99.993111
v 29.129601 68.509598 0.006859
v 22.064800 75.000000 0.006860
v 22.064800 74.999985 99.993118
v 29.129601 68.509598 0.006859
v 36.087101 72.088287 98.738113
v 36.087101 72.088303 1.251442
v 16.498600 61.612301 1.251440
v 16.498600 61.612286 98.738106
v 36.087101 72.088287 98.738113
v 16.498600 61.612301 1.251440
v 89.571800 29.846001 0.000005
v 16.629000 29.846001 0.013700
v 16.649401 29.845984 100.000008
v 89.592201 29.845984 99.986305
v 89.571800 29.846001 0.000005
v 16.649401 29.845984 100.000008
v 16.649401 25.059483 100.000008
v 89.592201 25.059483 99.986305
v 89.592201 29.845984 99.986305
v 16.649401 29.845984 100.000008
v 16.649401 25.059483 100.000008
v 89.592201 29.845984 99.986305
v 16.629000 25.059500 0.013699
v 89.571800 25.059500 0.000004
v 89.592201 25.059483 99.986305
v 16.649401 25.059483 100.000008
v 16.629000 25.059500 0.013699
v 89.592201 25.059483 99.986305
v 89.571800 25.059500 0.000004
v 16.629000 25.059500 0.013699
v 16.629000 29.846001 0.013700
v 89.571800 29.846001 0.000005
v 89.571800 25.059500 0.000004
v 16.629000 29.846001 0.013700
v 16.649401 25.059483 100.000008
v 16.649401 29.845984 100.000008
v 16.629000 29.846001 0.013700
v 16.629000 25.059500 0.013699
v 16.649401 25.059483 100.000008
v 16.629000 29.846001 0.013700
v 89.592201 29.845984 99.986305
v 89.592201 25.059483 99.986305
v 89.571800 25.059500 0.000004
v 89.571800 29.846001 0.000005
v 89.592201 29.845984 99.986305
v 89.571800 25.059500 0.000004
v 89.571800 73.288399 0.000012
v 16.629000 73.288498 0.013707
v 16.649401 73.288483 100.000015
v 89.592201 73.288383 99.986313
v 89.571800 73.288399 0.000012
v 16.649401 73.288483 100.000015
v 16.649401 68.501984 100.000008
v 89.592201 68.501884 99.986305
v 89.592201 73.288383 99.986313
v 16.649401 73.288483 100.000015
v 16.649401 68.501984 100.000008
v 89.592201 73.288383 99.986313
v 16.629000 68.501999 0.013706
v 89.571800 68.501900 0.000011
v 89.592201 68.501884 99.986305
v 16.649401 68.501984 100.000008
v 16.629000 68.501999 0.013706
v 89.592201 68.501884 99.986305
v 89.571800 68.501900 0.000011
v 16.629000 68.501999 0.013706
v 16.629000 73.288498 0.013707
v 89.571800 73.288399 0.000012
v 89.571800 68.501900 0.000011
v 16.629000 73.288498 0.013707
v 16.649401 68.501984 100.000008
v 16.649401 73.288483 100.000015
v 16.629000 73.288498 0.013707
v 16.629000 68.501999 0.013706
v 16.649401 68.501984 100.000008
v 16.629000 73.288498 0.013707
v 89.592201 73.288383 99.986313
v 89.592201 68.501884 99.986305
v 89.571800 68.501900 0.000011
v 89.571800 73.288399 0.000012
v 89.592201 73.288383 99.986313
v 89.571800 68.501900 0.000011
v 84.075996 72.865288 84.495316
v 84.075996 24.999987 84.495308
v 84.075996 24.999985 99.493210
v 84.075996 72.865288 99.493217
v 84.075996 72.865288 84.495316
v 84.075996 24.999985 99.493210
v 89.286102 24.999985 99.493210
v 89.286102 72.865288 99.493217
v 84.075996 72.865288 99.493217
v 84.075996 24.999985 99.493210
v 89.286102 24.999985 99.493210
v 84.075996 72.865288 99.493217
v 89.286102 24.999987 84.495308
v 89.286102 72.865288 84.495316
v 89.286102 72.865288 99.493217
v 89.286102 24.999985 99.493210
v 89.286102 24.999987 84.495308
v 89.286102 72.865288 99.493217
v 89.286102 72.865288 84.495316
v 89.286102 24.999987 84.495308
v 84.075996 24.999987 84.495308
v 84.075996 72.865288 84.495316
v 89.286102 72.865288 84.495316
v 84.075996 24.999987 84.495308
v 89.286102 24.999985 99.493210
v 84.075996 24.999985 99.493210
v 84.075996 24.999987 84.495308
v 89.286102 24.999987 84.495308
v 89.286102 24.999985 99.493210
v 84.075996 24.999987 84.495308
v 84.075996 72.865288 99.493217
v 89.286102 72.865288 99.493217
v 89.286102 72.865288 84.495316
v 84.075996 72.865288 84.495316
v 84.075996 72.865288 99.493217
v 89.286102 72.865288 84.495316
v 16.639200 72.865303 0.006859
v 16.639200 25.000000 0.006851
v 16.639200 24.999983 99.993111
v 16.639200 72.865288 99.993118
v 16.639200 72.865303 0.006859
v 16.639200 24.999983 99.993111
v 21.849400 24.999983 99.993111
v 21.849400 72.865288 99.993118
v 16.639200 72.865288 99.993118
v 16.639200 24.999983 99.993111
v 21.849400 24.999983 99.993111
v 16.639200 72.865288 99.993118
v 21.849400 25.000000 0.006851
v 21.849400 72.865303 0.006859
v 21.849400 72.865288 99.993118
v 21.849400 24.999983 99.993111
v 21.849400 25.000000 0.006851
v 21.849400 72.865288 99.993118
v 21.849400 72.865303 0.006859
v 21.849400 25.000000 0.006851
v 16.639200 25.000000 0.006851
v 16.639200 72.865303 0.006859
v 21.849400 72.865303 0.006859
v 16.639200 25.000000 0.006851
v 21.849400 24.999983 99.993111
v 16.639200 24.999983 99.993111
v 16.639200 25.000000 0.006851
v 21.849400 25.000000 0.006851
v 21.849400 24.999983 99.993111
v 16.639200 25.000000 0.006851
v 16.639200 72.865288 99.993118
v 21.849400 72.865288 99.993118
v 21.849400 72.865303 0.006859
v 16.639200 72.865303 0.006859
v 16.639200 72.865288 99.993118
v 21.849400 72.865303 0.006859
vt 0.000000 -1.000000
vt 0.000000 -1.000000
vt 0.000000 -1.000000
vt 0.000000 -1.000000
vt 0.000000 -1.000000
vt 0.000000 -1.000000
vt 0.000000 -0.000001
vt 0.000000 -0.000001
vt 0.000000 -0.000001
vt 0.000000 -0.000001
vt 0.000000 -0.000001
vt 0.000000 -0.000001
vt 0.000000 1.000000
vt 0.000000 1.000000
vt 0.000000 1.000000
vt 0.000000 1.000000
vt 0.000000 1.000000
vt 0.000000 1.000000
vt 0.000000 0.000001
vt 0.000000 0.000001
vt 0.000000 0.000001
vt 0.000000 0.000001
vt 0.000000 0.000001
vt 0.000000 0.000001
vt -1.000000 -0.000000
vt -1.000000 -0.000000
vt -1.000000 -0.000000
vt -1.000000 -0.000000
vt -1.000000 -0.000000
vt -1.000000 -0.000000
vt 1.000000 -0.000000
vt 1.000000 -0.000000
vt 1.000000 -0.000000
vt 1.000000 -0.000000
vt 1.000000 -0.000000
vt 1.000000 -0.000000
vt 0.000000 -1.000000
vt 0.000000 -1.000000
vt 0.000000 -1.000000
vt 0.000000 -1.000000
vt 0.000000 -1.000000
vt 0.000000 -1.000000
vt 0.000000 -0.000001
vt 0.000000 -0.000001
vt 0.000000 -0.000001
vt 0.000000 -0.000001
vt 0.000000 -0.000001
vt 0.000000 -0.000001
vt 0.000000 1.000000
vt 0.000000 1.000000
vt 0.000000 1.000000
vt 0.000000 1.000000
vt 0.000000 1.000000
vt 0.000000 1.000000
vt 0.000000 0.000001
vt 0.000000 0.000001
vt 0.000000 0.000001
vt 0.000000 0.000001
vt 0.000000 0.000001
vt 0.000000 0.000001
vt -1.000000 -0.000000
vt -1.000000 -0.000000
vt -1.000000 -0.000000
vt -1.000000 -0.000000
vt -1.000000 -0.000000
vt -1.000000 -0.000000
vt 1.000000 -0.000000
vt 1.000000 -0.000000
vt 1.000000 -0.000000
vt 1.000000 -0.000000
vt 1.000000 -0.000000
vt 1.000000 -0.000000
vt -0.000000 -0.000000
vt -0.000000 -0.000000
vt -0.000000 -0.000000
vt -0.000000 -0.000000
vt -0.000000 -0.000000
vt -0.000000 -0.000000
vt 0.000000 1.000000
vt 0.000000 1.000000
vt 0.000000 1.000000
vt 0.000000 1.000000
vt 0.000000 1.000000
vt 0.000000 1.000000
vt -0.000000 -0.000000
vt -0.000000 -0.000000
vt -0.000000 -0.000000
vt -0.000000 -0.000000
vt -0.000000 -0.000000
vt -0.000000 -0.000000
vt 0.000000 -1.000000
vt 0.000000 -1.000000
vt 0.000000 -1.000000
vt 0.000000 -1.000000
vt 0.000000 -1.000000
vt 0.000000 -1.000000
vt -1.000000 -0.000000
vt -1.000000 -0.000000
vt -1.000000 -0.000000
vt -1.000000 -0.000000
vt -1.000000 -0.000000
vt -1.000000 -0.000000
vt 1.000000 -0.000000
vt 1.000000 -0.000000
vt 1.000000 -0.000000
vt 1.000000 -0.000000
vt 1.000000 -0.000000
vt 1.000000 -0.000000
vt 1.000000 -0.000000
vt 1.000000 -0.000000
vt 1.000000 -0.000000
vt 1.000000 -0.000000
vt 1.000000 -0.000000
vt 1.000000 -0.000000
vt -0.000001 -0.000099
vt -0.000001 -0.000099
vt -0.000001 -0.000099
vt -0.000001 -0.000099
vt -0.000001 -0.000099
vt -0.000001 -0.000099
vt -1.000000 0.000000
vt -1.000000 0.000000
vt -1.000000 0.000000
vt -1.000000 0.000000
vt -1.000000 0.000000
vt -1.000000 0.000000
vt 0.000001 0.000099
vt 0.000001 0.000099
vt 0.000001 0.000099
vt 0.000001 0.000099
vt 0.000001 0.000099
vt 0.000001 0.000099
vt -0.000000 1.000000
vt -0.000000 1.000000
vt -0.000000 1.000000
vt -0.000000 1.000000
vt -0.000000 1.000000
vt -0.000000 1.000000
vt 0.000000 -1.000000
vt 0.000000 -1.000000
vt 0.000000 -1.000000
vt 0.000000 -1.000000
vt 0.000000 -1.000000
vt 0.000000 -1.000000
vt 1.000000 -0.000000
vt 1.000000 -0.000000
vt 1.000000 -0.000000
vt 1.000000 -0.000000
vt 1.000000 -0.000000
vt 1.000000 -0.000000
vt -0.000001 -0.000099
vt -0.000001 -0.000099
vt -0.000001 -0.000099
vt -0.000001 -0.000099
vt -0.000001 -0.000099
vt -0.000001 -0.000099
vt -1.000000 0.000000
vt -1.000000 0.000000
vt -1.000000 0.000000
vt -1.000000 0.000000
vt -1.000000 0.000000
vt -1.000000 0.000000
vt 0.000001 0.000099
vt 0.000001 0.000099
vt 0.000001 0.000099
vt 0.000001 0.000099
vt 0.000001 0.000099
vt 0.000001 0.000099
vt -0.000000 1.000000
vt -0.000000 1.000000
vt -0.000000 1.000000
vt -0.000000 1.000000
vt -0.000000 1.000000
vt -0.000000 1.000000
vt 0.000000 -1.000000
vt 0.000000 -1.000000
vt 0.000000 -1.000000
vt 0.000000 -1.000000
vt 0.000000 -1.000000
vt 0.000000 -1.000000
vt 0.707107 -0.000000
vt 0.707107 -0.000000
vt 0.707107 -0.000000
vt 0.707107 -0.000000
vt 0.707107 -0.000000
vt 0.707107 -0.000000
vt 0.000000 1.000000
vt 0.000000 1.000000
vt 0.000000 1.000000
vt 0.000000 1.000000
vt 0.000000 1.000000
vt 0.000000 1.000000
vt -0.707107 -0.000000
vt -0.707107 -0.000000
vt -0.707107 -0.000000
vt -0.707107 -0.000000
vt -0.707107 -0.000000
vt -0.707107 -0.000000
vt 0.000000 -1.000000
vt 0.000000 -1.000000
vt 0.000000 -1.000000
vt 0.000000 -1.000000
vt 0.000000 -1.000000
vt 0.000000 -1.000000
vt -0.707106 -0.000000
vt -0.707106 -0.000000
vt -0.707106 -0.000000
vt -0.707106 -0.000000
vt -0.707106 -0.000000
vt -0.707106 -0.000000
vt 0.707106 -0.000000
vt 0.707106 -0.000000
vt 0.707106 -0.000000
vt 0.707106 -0.000000
vt 0.707106 -0.000000
vt 0.707106 -0.000000
vt 0.864227 -0.000000
vt 0.864227 -0.000000
vt 0.864227 -0.000000
vt 0.864227 -0.000000
vt 0.864227 -0.000000
vt 0.864227 -0.000000
vt 1.000000 -0.000000
vt 1.000000 -0.000000
vt 1.000000 -0.000000
vt 1.000000 -0.000000
vt 1.000000 -0.000000
vt 1.000000 -0.000000
vt 0.000000 1.000000
vt 0.000000 1.000000
vt 0.000000 1.000000
vt 0.000000 1.000000
vt 0.000000 1.000000
vt 0.000000 1.000000
vt -1.000000 0.000000
vt -1.000000 0.000000
vt -1.000000 0.000000
vt -1.000000 0.000000
vt -1.000000 0.000000
vt -1.000000 0.000000
vt 0.000000 -1.000000
vt 0.000000 -1.000000
vt 0.000000 -1.000000
vt 0.000000 -1.000000
vt 0.000000 -1.000000
vt 0.000000 -1.000000
vt 0.000001 0.000196
vt 0.000001 0.000196
vt 0.000001 0.000196
vt 0.000001 0.000196
vt 0.000001 0.000196
vt 0.000001 0.000196
vt 0.000000 -0.000196
vt 0.000000 -0.000196
vt 0.000000 -0.000196
vt 0.000000 -0.000196
vt 0.000000 -0.000196
vt 0.000000 -0.000196
vt 1.000000 -0.000000
vt 1.000000 -0.000000
vt 1.000000 -0.000000
vt 1.000000 -0.000000
vt 1.000000 -0.000000
vt 1.000000 -0.000000
vt 0.000000 1.000000
vt 0.000000 1.000000
vt 0.000000 1.000000
vt 0.000000 1.000000
vt 0.000000 1.000000
vt 0.000000 1.000000
vt -1.000000 0.000000
vt -1.000000 0.000000
vt -1.000000 0.000000
vt -1.000000 0.000000
vt -1.000000 0.000000
vt -1.000000 0.000000
vt 0.000000 -1.000000
vt 0.000000 -1.000000
vt 0.000000 -1.000000
vt 0.000000 -1.000000
vt 0.000000 -1.000000
vt 0.000000 -1.000000
vt 0.000001 0.000196
vt 0.000001 0.000196
vt 0.000001 0.000196
vt 0.000001 0.000196
vt 0.000001 0.000196
vt 0.000001 0.000196
vt 0.000000 -0.000196
vt 0.000000 -0.000196
vt 0.000000 -0.000196
vt 0.000000 -0.000196
vt 0.000000 -0.000196
vt 0.000000 -0.000196
vt -0.000000 -0.000000
vt -0.000000 -0.000000
vt -0.000000 -0.000000
vt -0.000000 -0.000000
vt -0.000000 -0.000000
vt -0.000000 -0.000000
vt 0.000000 1.000000
vt 0.000000 1.000000
vt 0.000000 1.000000
vt 0.000000 1.000000
vt 0.000000 1.000000
vt 0.000000 1.000000
vt -0.000000 -0.000000
vt -0.000000 -0.000000
vt -0.000000 -0.000000
vt -0.000000 -0.000000
vt -0.000000 -0.000000
vt -0.000000 -0.000000
vt 0.000000 -1.000000
vt 0.000000 -1.000000
vt 0.000000 -1.000000
vt 0.000000 -1.000000
vt 0.000000 -1.000000
vt 0.000000 -1.000000
vt -1.000000 -0.000000
vt -1.000000 -0.000000
vt -1.000000 -0.000000
vt -1.000000 -0.000000
vt -1.000000 -0.000000
vt -1.000000 -0.000000
vt 1.000000 -0.000000
vt 1.000000 -0.000000
vt 1.000000 -0.000000
vt 1.000000 -0.000000
vt 1.000000 -0.000000
vt 1.000000 -0.000000
vt -0.000000 -0.000000
vt -0.000000 -0.000000
vt -0.000000 -0.000000
vt -0.000000 -0.000000
vt -0.000000 -0.000000
vt -0.000000 -0.000000
vt 0.000000 1.000000
vt 0.000000 1.000000
vt 0.000000 1.000000
vt 0.000000 1.000000
vt 0.000000 1.000000
vt 0.000000 1.000000
vt -0.000000 -0.000000
vt -0.000000 -0.000000
vt -0.000000 -0.000000
vt -0.000000 -0.000000
vt -0.000000 -0.000000
vt -0.000000 -0.000000
vt 0.000000 -1.000000
vt 0.000000 -1.000000
vt 0.000000 -1.000000
vt 0.000000 -1.000000
vt 0.000000 -1.000000
vt 0.000000 -1.000000
vt -1.000000 -0.000000
vt -1.000000 -0.000000
vt -1.000000 -0.000000
vt -1.000000 -0.000000
vt -1.000000 -0.000000
vt -1.000000 -0.000000
vt 1.000000 -0.000000
vt 1.000000 -0.000000
vt 1.000000 -0.000000
vt 1.000000 -0.000000
vt 1.000000 -0.000000
vt 1.000000 -0.000000
vn 0.0000 0.0000 -1.0000
vn -1.0000 0.0000 0.0000
vn 0.0000 -0.0000 1.0000
vn 1.0000 0.0000 0.0000
vn 0.0000 -1.0000 0.0000
vn 0.0000 1.0000 0.0000
vn 1.0000 0.0000 -0.0001
vn -1.0000 0.0000 0.0001
vn 0.0001 -0.0000 1.0000
vn -0.0001 0.0000 -1.0000
vn -0.6765 0.7364 0.0000
vn 0.6765 -0.7364 -0.0000
vn -0.6765 -0.7364 -0.0000
vn 0.6765 0.7364 0.0000
vn -0.4716 0.8818 0.0000
vn 0.0002 0.0000 1.0000
vn -0.0002 0.0000 -1.0000
vn -1.0000 0.0000 0.0002
vn 1.0000 0.0000 -0.0002
s 1
f 1/1/1 2/2/1 3/3/1
f 4/4/1 5/5/1 6/6/1
f 7/7/2 8/8/2 9/9/2
f 10/10/2 11/11/2 12/12/2
f 13/13/3 14/14/3 15/15/3
f 16/16/3 17/17/3 18/18/3
f 19/19/4 20/20/4 21/21/4
f 22/22/4 23/23/4 24/24/4
f 25/25/5 26/26/5 27/27/5
f 28/28/5 29/29/5 30/30/5
f 31/31/6 32/32/6 33/33/6
f 34/34/6 35/35/6 36/36/6
f 37/37/1 38/38/1 39/39/1
f 40/40/1 41/41/1 42/42/1
f 43/43/2 44/44/2 45/45/2
f 46/46/2 47/47/2 48/48/2
f 49/49/3 50/50/3 51/51/3
f 52/52/3 53/53/3 54/54/3
f 55/55/4 56/56/4 57/57/4
f 58/58/4 59/59/4 60/60/4
f 61/61/5 62/62/5 63/63/5
f 64/64/5 65/65/5 66/66/5
f 67/67/6 68/68/6 69/69/6
f 70/70/6 71/71/6 72/72/6
f 73/73/2 74/74/2 75/75/2
f 76/76/2 77/77/2 78/78/2
f 79/79/3 80/80/3 81/81/3
f 82/82/3 83/83/3 84/84/3
f 85/85/4 86/86/4 87/87/4
f 88/88/4 89/89/4 90/90/4
f 91/91/1 92/92/1 93/93/1
f 94/94/1 95/95/1 96/96/1
f 97/97/5 98/98/5 99/99/5
f 100/100/5 101/101/5 102/102/5
f 103/103/6 104/104/6 105/105/6
f 106/106/6 107/107/6 108/108/6
f 109/109/6 110/110/6 111/111/6
f 112/112/6 113/113/6 114/114/6
f 115/115/7 116/116/7 117/117/7
f 118/118/7 119/119/7 120/120/7
f 121/121/5 122/122/5 123/123/5
f 124/124/5 125/125/5 126/126/5
f 127/127/8 128/128/8 129/129/8
f 130/130/8 131/131/8 132/132/8
f 133/133/9 134/134/9 135/135/9
f 136/136/9 137/137/9 138/138/9
f 139/139/10 140/140/10 141/141/10
f 142/142/10 143/143/10 144/144/10
f 145/145/6 146/146/6 147/147/6
f 148/148/6 149/149/6 150/150/6
f 151/151/7 152/152/7 153/153/7
f 154/154/7 155/155/7 156/156/7
f 157/157/5 158/158/5 159/159/5
f 160/160/5 161/161/5 162/162/5
f 163/163/8 164/164/8 165/165/8
f 166/166/8 167/167/8 168/168/8
f 169/169/9 170/170/9 171/171/9
f 172/172/9 173/173/9 174/174/9
f 175/175/10 176/176/10 177/177/10
f 178/178/10 179/179/10 180/180/10
f 181/181/11 182/182/11 183/183/11
f 184/184/11 185/185/11 186/186/11
f 187/187/3 188/188/3 189/189/3
f 190/190/3 191/191/3 192/192/3
f 193/193/12 194/194/12 195/195/12
f 196/196/12 197/197/12 198/198/12
f 199/199/1 200/200/1 201/201/1
f 202/202/1 203/203/1 204/204/1
f 205/205/13 206/206/13 207/207/13
f 208/208/13 209/209/13 210/210/13
f 211/211/14 212/212/14 213/213/14
f 214/214/14 215/215/14 216/216/14
f 217/217/15 218/218/15 219/219/15
f 220/220/15 221/221/15 222/222/15
f 223/223/6 224/224/6 225/225/6
f 226/226/6 227/227/6 228/228/6
f 229/229/16 230/230/16 231/231/16
f 232/232/16 233/233/16 234/234/16
f 235/235/5 236/236/5 237/237/5
f 238/238/5 239/239/5 240/240/5
f 241/241/17 242/242/17 243/243/17
f 244/244/17 245/245/17 246/246/17
f 247/247/18 248/248/18 249/249/18
f 250/250/18 251/251/18 252/252/18
f 253/253/19 254/254/19 255/255/19
f 256/256/19 257/257/19 258/258/19
f 259/259/6 260/260/6 261/261/6
f 262/262/6 263/263/6 264/264/6
f 265/265/16 266/266/16 267/267/16
f 268/268/16 269/269/16 270/270/16
f 271/271/5 272/272/5 273/273/5
f 274/274/5 275/275/5 276/276/5
f 277/277/17 278/278/17 279/279/17
f 280/280/17 281/281/17 282/282/17
f 283/283/18 284/284/18 285/285/18
f 286/286/18 287/287/18 288/288/18
f 289/289/19 290/290/19 291/291/19
f 292/292/19 293/293/19 294/294/19
f 295/295/2 296/296/2 297/297/2
f 298/298/2 299/299/2 300/300/2
f 301/301/3 302/302/3 303/303/3
f 304/304/3 305/305/3 306/306/3
f 307/307/4 308/308/4 309/309/4
f 310/310/4 311/311/4 312/312/4
f 313/313/1 314/314/1 315/315/1
f 316/316/1 317/317/1 318/318/1
f 319/319/5 320/320/5 321/321/5
f 322/322/5 323/323/5 324/324/5
f 325/325/6 326/326/6 327/327/6
f 328/328/6 329/329/6 330/330/6
f 331/331/2 332/332/2 333/333/2
f 334/334/2 335/335/2 336/336/2
f 337/337/3 338/338/3 339/339/3
f 340/340/3 341/341/3 342/342/3
f 343/343/4 344/344/4 345/345/4
f 346/346/4 347/347/4 348/348/4
f 349/349/1 350/350/1 351/351/1
f 352/352/1 353/353/1 354/354/1
f 355/355/5 356/356/5 357/357/5
f 358/358/5 359/359/5 360/360/5
f 361/361/6 362/362/6 363/363/6
f 364/364/6 365/365/6 366/366/6
